<svg xmlns="http://www.w3.org/2000/svg" xmlns:xlink="http://www.w3.org/1999/xlink" width="500" zoomAndPan="magnify" viewBox="0 0 375 374.999991" height="500" preserveAspectRatio="xMidYMid meet" version="1.0"><defs><g/><clipPath id="93ead43ea3"><path d="M 112.5 117 L 251 117 L 251 211.574219 L 112.5 211.574219 Z M 112.5 117 " clip-rule="nonzero"/></clipPath><clipPath id="7ec33f8d77"><path d="M 235 95.324219 L 262.5 95.324219 L 262.5 123 L 235 123 Z M 235 95.324219 " clip-rule="nonzero"/></clipPath></defs><rect x="-37.5" width="450" fill="#ffffff" y="-37.499999" height="449.999989" fill-opacity="1"/><rect x="-37.5" width="450" fill="#050a30" y="-37.499999" height="449.999989" fill-opacity="1"/><g clip-path="url(#93ead43ea3)"><path fill="#ffffff" d="M 128.867188 117.445312 L 188.085938 117.445312 L 188.085938 122.28125 L 135.9375 122.28125 C 134.003906 122.28125 132.421875 123.863281 132.421875 125.796875 L 132.421875 180.875 C 132.421875 182.808594 134.003906 184.390625 135.9375 184.390625 L 226.757812 184.390625 C 228.691406 184.390625 230.273438 182.808594 230.273438 180.875 L 230.273438 163.296875 L 237.890625 163.296875 L 237.890625 185.160156 C 237.890625 186.535156 237.199219 187.753906 236.148438 188.492188 L 237.890625 188.492188 C 237.890625 188.492188 242.1875 193.566406 250.78125 203.722656 C 249.605469 208.371094 247.265625 211.101562 243.75 211.925781 C 243.75 211.925781 202.734375 211.925781 120.703125 211.925781 C 116.65625 211.820312 113.921875 209.085938 112.5 203.722656 C 112.5 203.722656 116.796875 198.648438 125.390625 188.492188 L 126.546875 188.492188 C 125.496094 187.753906 124.804688 186.535156 124.804688 185.160156 L 124.804688 121.507812 C 124.804688 119.273438 126.632812 117.445312 128.867188 117.445312 Z M 171.679688 206.066406 L 191.601562 206.066406 C 192.566406 206.066406 193.359375 206.859375 193.359375 207.824219 C 193.359375 208.792969 192.566406 209.582031 191.601562 209.582031 L 171.679688 209.582031 C 170.714844 209.582031 169.921875 208.792969 169.921875 207.824219 C 169.921875 206.859375 170.714844 206.066406 171.679688 206.066406 Z M 160.546875 204.308594 C 162.890625 200.792969 164.0625 199.035156 164.0625 199.035156 C 187.5 199.035156 199.21875 199.035156 199.21875 199.035156 C 201.5625 202.550781 202.734375 204.308594 202.734375 204.308594 C 174.609375 204.308594 160.546875 204.308594 160.546875 204.308594 Z M 160.546875 204.308594 " fill-opacity="1" fill-rule="evenodd"/></g><path fill="#12229d" d="M 172.265625 154.507812 L 183.984375 154.507812 L 183.984375 166.226562 L 172.265625 166.226562 Z M 172.265625 154.507812 " fill-opacity="1" fill-rule="evenodd"/><path fill="#233dff" d="M 190.429688 153.921875 L 200.835938 153.921875 L 200.835938 164.324219 L 190.429688 164.324219 Z M 190.429688 153.921875 " fill-opacity="1" fill-rule="evenodd"/><path fill="#5cb6f9" d="M 227.304688 135.753906 L 249.574219 135.753906 L 249.574219 158.023438 L 227.304688 158.023438 Z M 227.304688 135.753906 " fill-opacity="1" fill-rule="evenodd"/><path fill="#f4f6fc" d="M 209.835938 149.890625 L 222.65625 149.890625 L 222.65625 162.710938 L 209.835938 162.710938 Z M 209.835938 149.890625 " fill-opacity="1" fill-rule="evenodd"/><path fill="#12229d" d="M 198.117188 135.828125 L 210.9375 135.828125 L 210.9375 148.648438 L 198.117188 148.648438 Z M 198.117188 135.828125 " fill-opacity="1" fill-rule="evenodd"/><path fill="#5cb6f9" d="M 193.394531 119.386719 L 206.214844 119.386719 L 206.214844 132.207031 L 193.394531 132.207031 Z M 193.394531 119.386719 " fill-opacity="1" fill-rule="evenodd"/><path fill="#f4f6fc" d="M 179.953125 141.101562 L 190.359375 141.101562 L 190.359375 151.507812 L 179.953125 151.507812 Z M 179.953125 141.101562 " fill-opacity="1" fill-rule="evenodd"/><path fill="#233dff" d="M 213.277344 114.074219 L 231.445312 114.074219 L 231.445312 132.242188 L 213.277344 132.242188 Z M 213.277344 114.074219 " fill-opacity="1" fill-rule="evenodd"/><path fill="#12229d" d="M 216.832031 97.121094 L 229.652344 97.121094 L 229.652344 109.941406 L 216.832031 109.941406 Z M 216.832031 97.121094 " fill-opacity="1" fill-rule="evenodd"/><g clip-path="url(#7ec33f8d77)"><path fill="#f4f6fc" d="M 235.542969 95.324219 L 262.5 95.324219 L 262.5 122.28125 L 235.542969 122.28125 Z M 235.542969 95.324219 " fill-opacity="1" fill-rule="evenodd"/></g><g fill="#f4f6fc" fill-opacity="1"><g transform="translate(37.593752, 249.525936)"><g><path d="M 0.175781 0 L 4.230469 0 L 5.839844 -4.492188 L 13.875 -4.492188 L 15.472656 0 L 19.484375 0 L 11.242188 -20.683594 L 8.460938 -20.683594 Z M 7.097656 -7.671875 L 9.867188 -15.222656 L 12.617188 -7.671875 Z M 7.097656 -7.671875 "/></g></g></g><g fill="#f4f6fc" fill-opacity="1"><g transform="translate(57.251233, 249.525936)"><g><path d="M 2.664062 0 L 6.234375 0 L 6.234375 -14.503906 L 14.902344 0 L 18.617188 0 L 18.617188 -20.683594 L 15.046875 -20.683594 L 15.046875 -6.207031 L 6.351562 -20.683594 L 2.664062 -20.683594 Z M 2.664062 0 "/></g></g></g><g fill="#f4f6fc" fill-opacity="1"><g transform="translate(78.53342, 249.525936)"><g><path d="M 2.664062 0 L 8.636719 0 C 15.589844 0 19.425781 -3.746094 19.425781 -10.1875 C 19.425781 -16.90625 15.707031 -20.683594 8.664062 -20.683594 L 2.664062 -20.683594 Z M 6.382812 -3.410156 L 6.382812 -17.273438 L 8.605469 -17.273438 C 13.699219 -17.273438 15.707031 -15.253906 15.707031 -10.347656 C 15.707031 -5.183594 12.835938 -3.410156 8.269531 -3.410156 Z M 6.382812 -3.410156 "/></g></g></g><g fill="#f4f6fc" fill-opacity="1"><g transform="translate(99.156942, 249.525936)"><g><path d="M 2.664062 0.0273438 L 6.382812 0.0273438 L 6.382812 -8.839844 L 8.871094 -8.839844 L 13.964844 0.0273438 L 18.222656 0.0273438 L 12.472656 -9.207031 C 14.8125 -10.011719 16.511719 -11.988281 16.511719 -14.59375 C 16.511719 -18.472656 13.21875 -20.683594 9.351562 -20.683594 L 2.664062 -20.683594 Z M 6.410156 -11.871094 L 6.410156 -17.359375 L 9.382812 -17.359375 C 11.503906 -17.359375 12.835938 -16.246094 12.835938 -14.535156 C 12.835938 -12.984375 11.667969 -11.957031 9.691406 -11.871094 Z M 6.410156 -11.871094 "/></g></g></g><g fill="#f4f6fc" fill-opacity="1"><g transform="translate(117.716649, 249.525936)"><g><path d="M 2.664062 0 L 16.421875 0 L 16.421875 -3.511719 L 6.382812 -3.511719 L 6.382812 -8.636719 L 15.734375 -8.636719 L 15.734375 -12.046875 L 6.382812 -12.046875 L 6.382812 -17.273438 L 16.421875 -17.273438 L 16.421875 -20.683594 L 2.664062 -20.683594 Z M 2.664062 0 "/></g></g></g><g fill="#f4f6fc" fill-opacity="1"><g transform="translate(135.939704, 249.525936)"><g><path d="M 2.664062 0 L 6.382812 0 L 6.382812 -20.683594 L 2.664062 -20.683594 Z M 2.664062 0 "/></g></g></g><g fill="#f4f6fc" fill-opacity="1"><g transform="translate(144.985366, 249.525936)"><g/></g></g><g fill="#f4f6fc" fill-opacity="1"><g transform="translate(152.186766, 249.525936)"><g><path d="M 0.175781 0 L 4.230469 0 L 5.839844 -4.492188 L 13.875 -4.492188 L 15.472656 0 L 19.484375 0 L 11.242188 -20.683594 L 8.460938 -20.683594 Z M 7.097656 -7.671875 L 9.867188 -15.222656 L 12.617188 -7.671875 Z M 7.097656 -7.671875 "/></g></g></g><g fill="#f4f6fc" fill-opacity="1"><g transform="translate(171.844247, 249.525936)"><g><path d="M 11.210938 0.292969 C 15.324219 0.292969 18.617188 -1.800781 20.257812 -5.664062 L 16.820312 -7.070312 C 15.707031 -4.289062 13.875 -3.234375 11.210938 -3.234375 C 6.777344 -3.234375 4.890625 -6.382812 4.890625 -10.496094 C 4.890625 -14.328125 6.777344 -17.476562 11.152344 -17.476562 C 13.847656 -17.476562 15.984375 -16.421875 16.761719 -13.699219 L 20.230469 -15.078125 C 18.558594 -18.941406 15.28125 -21.019531 11.183594 -21.019531 C 4.375 -21.019531 1.199219 -16.011719 1.199219 -10.347656 C 1.199219 -4.667969 4.40625 0.292969 11.210938 0.292969 Z M 11.210938 0.292969 "/></g></g></g><g fill="#f4f6fc" fill-opacity="1"><g transform="translate(192.80442, 249.525936)"><g><path d="M 2.664062 0 L 6.382812 0 L 6.382812 -20.683594 L 2.664062 -20.683594 Z M 2.664062 0 "/></g></g></g><g fill="#f4f6fc" fill-opacity="1"><g transform="translate(201.850081, 249.525936)"><g><path d="M 11.183594 0.292969 C 18.019531 0.292969 21.164062 -4.714844 21.164062 -10.347656 C 21.164062 -15.984375 18.019531 -20.988281 11.183594 -20.988281 C 4.347656 -20.988281 1.199219 -15.984375 1.199219 -10.347656 C 1.199219 -4.714844 4.347656 0.292969 11.183594 0.292969 Z M 11.183594 -3 C 6.746094 -3 5.125 -6.441406 5.125 -10.347656 C 5.125 -14.242188 6.746094 -17.683594 11.183594 -17.683594 C 15.617188 -17.683594 17.242188 -14.242188 17.242188 -10.347656 C 17.242188 -6.441406 15.617188 -3 11.183594 -3 Z M 11.183594 -3 "/></g></g></g><g fill="#f4f6fc" fill-opacity="1"><g transform="translate(224.215406, 249.525936)"><g><path d="M 2.664062 0 L 10.730469 0 C 14.242188 0 17.476562 -2.152344 17.476562 -6 C 17.476562 -8.066406 16.042969 -10.320312 14.15625 -11.066406 C 15.324219 -11.695312 16.453125 -13.21875 16.453125 -15.105469 C 16.453125 -19.25 12.984375 -20.683594 9.835938 -20.683594 L 2.664062 -20.683594 Z M 6.382812 -12.355469 L 6.382812 -17.332031 L 9.894531 -17.332031 C 11.667969 -17.332031 13.042969 -16.511719 13.042969 -14.902344 C 13.042969 -12.867188 11.636719 -12.355469 10.1875 -12.355469 Z M 6.382812 -3.542969 L 6.382812 -9.148438 L 10.640625 -9.148438 C 12.589844 -9.148438 13.816406 -7.890625 13.816406 -6.410156 C 13.816406 -4.464844 12.707031 -3.542969 10.789062 -3.542969 Z M 6.382812 -3.542969 "/></g></g></g><g fill="#f4f6fc" fill-opacity="1"><g transform="translate(242.862934, 249.525936)"><g><path d="M 0.175781 0 L 4.230469 0 L 5.839844 -4.492188 L 13.875 -4.492188 L 15.472656 0 L 19.484375 0 L 11.242188 -20.683594 L 8.460938 -20.683594 Z M 7.097656 -7.671875 L 9.867188 -15.222656 L 12.617188 -7.671875 Z M 7.097656 -7.671875 "/></g></g></g><g fill="#f4f6fc" fill-opacity="1"><g transform="translate(262.520404, 249.525936)"><g><path d="M 2.664062 0 L 6.234375 0 L 6.234375 -14.503906 L 14.902344 0 L 18.617188 0 L 18.617188 -20.683594 L 15.046875 -20.683594 L 15.046875 -6.207031 L 6.351562 -20.683594 L 2.664062 -20.683594 Z M 2.664062 0 "/></g></g></g><g fill="#f4f6fc" fill-opacity="1"><g transform="translate(283.802591, 249.525936)"><g><path d="M 2.664062 0 L 6.382812 0 L 6.382812 -20.683594 L 2.664062 -20.683594 Z M 2.664062 0 "/></g></g></g><g fill="#f4f6fc" fill-opacity="1"><g transform="translate(292.848252, 249.525936)"><g><path d="M 6.777344 0 L 10.496094 0 L 10.496094 -17.359375 L 16.964844 -17.359375 L 16.964844 -20.683594 L 0.292969 -20.683594 L 0.292969 -17.359375 L 6.777344 -17.359375 Z M 6.777344 0 "/></g></g></g><g fill="#f4f6fc" fill-opacity="1"><g transform="translate(310.119903, 249.525936)"><g><path d="M 2.664062 0 L 16.421875 0 L 16.421875 -3.511719 L 6.382812 -3.511719 L 6.382812 -8.636719 L 15.734375 -8.636719 L 15.734375 -12.046875 L 6.382812 -12.046875 L 6.382812 -17.273438 L 16.421875 -17.273438 L 16.421875 -20.683594 L 2.664062 -20.683594 Z M 2.664062 0 "/></g></g></g><g fill="#f4f6fc" fill-opacity="1"><g transform="translate(328.34297, 249.525936)"><g><path d="M 2.664062 0 L 6.382812 0 L 6.382812 -20.683594 L 2.664062 -20.683594 Z M 2.664062 0 "/></g></g></g><g fill="#f4f6fc" fill-opacity="1"><g transform="translate(87.262968, 273.974221)"><g><path d="M 1.597656 0 L 5.183594 0 C 9.359375 0 11.664062 -2.25 11.664062 -6.117188 C 11.664062 -10.152344 9.429688 -12.417969 5.203125 -12.417969 L 1.597656 -12.417969 Z M 3.832031 -2.046875 L 3.832031 -10.371094 L 5.167969 -10.371094 C 8.226562 -10.371094 9.429688 -9.15625 9.429688 -6.214844 C 9.429688 -3.109375 7.707031 -2.046875 4.964844 -2.046875 Z M 3.832031 -2.046875 "/></g></g></g><g fill="#f4f6fc" fill-opacity="1"><g transform="translate(101.086756, 273.974221)"><g><path d="M 1.597656 0 L 3.832031 0 L 3.832031 -12.417969 L 1.597656 -12.417969 Z M 1.597656 0 "/></g></g></g><g fill="#f4f6fc" fill-opacity="1"><g transform="translate(107.958396, 273.974221)"><g><path d="M 6.730469 0.175781 C 8.382812 0.175781 9.738281 -0.578125 10.40625 -1.75 L 10.597656 0 L 12.367188 0 L 12.367188 -6.714844 L 7.382812 -6.714844 L 7.382812 -4.914062 L 10.203125 -4.914062 C 9.957031 -3.023438 8.515625 -1.820312 6.730469 -1.820312 C 4.070312 -1.820312 2.933594 -3.832031 2.933594 -6.300781 C 2.933594 -8.605469 4.070312 -10.667969 6.695312 -10.667969 C 8.277344 -10.667969 9.578125 -9.914062 10.152344 -8.226562 L 12.128906 -9.050781 C 11.125 -11.371094 9.15625 -12.621094 6.714844 -12.621094 C 2.609375 -12.621094 0.71875 -9.613281 0.71875 -6.214844 C 0.71875 -2.804688 2.644531 0.175781 6.730469 0.175781 Z M 6.730469 0.175781 "/></g></g></g><g fill="#f4f6fc" fill-opacity="1"><g transform="translate(122.880818, 273.974221)"><g><path d="M 1.597656 0 L 3.832031 0 L 3.832031 -12.417969 L 1.597656 -12.417969 Z M 1.597656 0 "/></g></g></g><g fill="#f4f6fc" fill-opacity="1"><g transform="translate(129.752457, 273.974221)"><g><path d="M 4.070312 0 L 6.300781 0 L 6.300781 -10.421875 L 10.1875 -10.421875 L 10.1875 -12.417969 L 0.175781 -12.417969 L 0.175781 -10.421875 L 4.070312 -10.421875 Z M 4.070312 0 "/></g></g></g><g fill="#f4f6fc" fill-opacity="1"><g transform="translate(141.563549, 273.974221)"><g><path d="M 0.105469 0 L 2.539062 0 L 3.507812 -2.699219 L 8.332031 -2.699219 L 9.289062 0 L 11.699219 0 L 6.75 -12.417969 L 5.078125 -12.417969 Z M 4.261719 -4.605469 L 5.921875 -9.140625 L 7.574219 -4.605469 Z M 4.261719 -4.605469 "/></g></g></g><g fill="#f4f6fc" fill-opacity="1"><g transform="translate(154.807257, 273.974221)"><g><path d="M 1.597656 0 L 9.140625 0 L 9.140625 -2.109375 L 3.832031 -2.109375 L 3.832031 -12.417969 L 1.597656 -12.417969 Z M 1.597656 0 "/></g></g></g><g fill="#f4f6fc" fill-opacity="1"><g transform="translate(165.590028, 273.974221)"><g/></g></g><g fill="#f4f6fc" fill-opacity="1"><g transform="translate(171.354245, 273.974221)"><g><path d="M 1.597656 0 L 3.742188 0 L 3.742188 -9.289062 L 6.820312 -1.082031 L 8.980469 -1.082031 L 12.058594 -9.289062 L 12.058594 0 L 14.203125 0 L 14.203125 -12.417969 L 11.195312 -12.417969 L 7.902344 -3.585938 L 4.605469 -12.417969 L 1.597656 -12.417969 Z M 1.597656 0 "/></g></g></g><g fill="#f4f6fc" fill-opacity="1"><g transform="translate(188.596983, 273.974221)"><g><path d="M 0.105469 0 L 2.539062 0 L 3.507812 -2.699219 L 8.332031 -2.699219 L 9.289062 0 L 11.699219 0 L 6.75 -12.417969 L 5.078125 -12.417969 Z M 4.261719 -4.605469 L 5.921875 -9.140625 L 7.574219 -4.605469 Z M 4.261719 -4.605469 "/></g></g></g><g fill="#f4f6fc" fill-opacity="1"><g transform="translate(201.840691, 273.974221)"><g><path d="M 1.597656 0.015625 L 3.832031 0.015625 L 3.832031 -5.308594 L 5.324219 -5.308594 L 8.382812 0.015625 L 10.941406 0.015625 L 7.488281 -5.527344 C 8.894531 -6.011719 9.914062 -7.199219 9.914062 -8.761719 C 9.914062 -11.089844 7.9375 -12.417969 5.617188 -12.417969 L 1.597656 -12.417969 Z M 3.847656 -7.128906 L 3.847656 -10.421875 L 5.632812 -10.421875 C 6.90625 -10.421875 7.707031 -9.753906 7.707031 -8.726562 C 7.707031 -7.796875 7.003906 -7.179688 5.816406 -7.128906 Z M 3.847656 -7.128906 "/></g></g></g><g fill="#f4f6fc" fill-opacity="1"><g transform="translate(214.42522, 273.974221)"><g><path d="M 1.597656 0 L 3.832031 0 L 3.832031 -3.226562 L 6.355469 -5.835938 L 10.1875 0 L 12.964844 0 L 7.902344 -7.328125 L 12.867188 -12.417969 L 9.878906 -12.417969 L 3.832031 -5.941406 L 3.832031 -12.417969 L 1.597656 -12.417969 Z M 1.597656 0 "/></g></g></g><g fill="#f4f6fc" fill-opacity="1"><g transform="translate(228.96971, 273.974221)"><g><path d="M 1.597656 0 L 9.859375 0 L 9.859375 -2.109375 L 3.832031 -2.109375 L 3.832031 -5.183594 L 9.449219 -5.183594 L 9.449219 -7.234375 L 3.832031 -7.234375 L 3.832031 -10.371094 L 9.859375 -10.371094 L 9.859375 -12.417969 L 1.597656 -12.417969 Z M 1.597656 0 "/></g></g></g><g fill="#f4f6fc" fill-opacity="1"><g transform="translate(241.35209, 273.974221)"><g><path d="M 4.070312 0 L 6.300781 0 L 6.300781 -10.421875 L 10.1875 -10.421875 L 10.1875 -12.417969 L 0.175781 -12.417969 L 0.175781 -10.421875 L 4.070312 -10.421875 Z M 4.070312 0 "/></g></g></g><g fill="#f4f6fc" fill-opacity="1"><g transform="translate(253.163182, 273.974221)"><g><path d="M 1.597656 0 L 3.832031 0 L 3.832031 -12.417969 L 1.597656 -12.417969 Z M 1.597656 0 "/></g></g></g><g fill="#f4f6fc" fill-opacity="1"><g transform="translate(260.034821, 273.974221)"><g><path d="M 1.597656 0 L 3.742188 0 L 3.742188 -8.710938 L 8.945312 0 L 11.179688 0 L 11.179688 -12.417969 L 9.035156 -12.417969 L 9.035156 -3.726562 L 3.8125 -12.417969 L 1.597656 -12.417969 Z M 1.597656 0 "/></g></g></g><g fill="#f4f6fc" fill-opacity="1"><g transform="translate(274.254115, 273.974221)"><g><path d="M 6.730469 0.175781 C 8.382812 0.175781 9.738281 -0.578125 10.40625 -1.75 L 10.597656 0 L 12.367188 0 L 12.367188 -6.714844 L 7.382812 -6.714844 L 7.382812 -4.914062 L 10.203125 -4.914062 C 9.957031 -3.023438 8.515625 -1.820312 6.730469 -1.820312 C 4.070312 -1.820312 2.933594 -3.832031 2.933594 -6.300781 C 2.933594 -8.605469 4.070312 -10.667969 6.695312 -10.667969 C 8.277344 -10.667969 9.578125 -9.914062 10.152344 -8.226562 L 12.128906 -9.050781 C 11.125 -11.371094 9.15625 -12.621094 6.714844 -12.621094 C 2.609375 -12.621094 0.71875 -9.613281 0.71875 -6.214844 C 0.71875 -2.804688 2.644531 0.175781 6.730469 0.175781 Z M 6.730469 0.175781 "/></g></g></g></svg>